<?xml version="1.0" encoding="utf-8"?>
<!-- Generator: Adobe Illustrator 19.0.0, SVG Export Plug-In . SVG Version: 6.00 Build 0)  -->
<svg version="1.1" id="Layer_1" xmlns="http://www.w3.org/2000/svg" xmlns:xlink="http://www.w3.org/1999/xlink" x="0px" y="0px"
	 viewBox="0 0 152 152" style="enable-background:new 0 0 152 152;" xml:space="preserve">
<style type="text/css">
	.st0{fill:#183D4B;}
	.st1{fill:#FFFFFF;}
	.st2{fill:#03A550;}
</style>
<g>
	<path class="st0" d="M147.5,137.2c0,6.1-5,11.1-11.1,11.1H15.6c-6.1,0-11.1-5-11.1-11.1V16.4c0-6.1,5-11.1,11.1-11.1h120.8
		c6.1,0,11.1,5,11.1,11.1V137.2L147.5,137.2z"/>
	<g>
		<g>
			<g>
				<g>
					<g>
						<path class="st1" d="M129.7,95.8c0.2-6-5.3-7.5-8.6-6.9c-6.2,1.1-5.7,6.9-5.7,6.9l0,0c0,5.6-1.4,9.9-4.2,12.6
							c-2.8,2.8-6.8,4.2-12,4.2C88.4,112.6,83,107,83,95.8l0,0c0,9.3-2.4,16.2-7.2,20.9c0.4,0.4,0.8,0.8,1.2,1.1
							c5.5,4.7,12.9,7,22.2,7s16.7-2.3,22.2-7C127,113.1,129.7,105.8,129.7,95.8L129.7,95.8z"/>
						<path class="st1" d="M99.2,129.9c-10.5,0-19.1-2.8-25.4-8.2c-0.5-0.4-1-0.9-1.5-1.4l-3.6-3.6l3.6-3.5
							c3.8-3.7,5.7-9.5,5.7-17.4h10c0,8.5,3.1,11.8,11.2,11.8c3.8,0,6.6-0.9,8.4-2.7c1.8-1.8,2.7-4.7,2.7-8.8
							c-0.3-4.2,2-10.7,9.8-12.1c0.7-0.1,1.5-0.2,2.2-0.2c3.6,0,6.9,1.3,9.2,3.6c1.4,1.4,2.9,3.8,3.1,7.5v0.2c0,0.2,0,0.3,0,0.5v0.2
							c0,11.5-3.4,20.2-10,25.8C118.3,127.1,109.7,129.9,99.2,129.9z M82.9,115.9c4.2,2.6,9.7,3.9,16.3,3.9c8,0,14.4-2,19-5.8
							c4.2-3.6,6.4-9.3,6.5-17.4v-0.1v-1c0-0.4,0-1-0.3-1.2c-0.4-0.4-1.6-0.7-2.5-0.6c-0.7,0.1-1.5,0.2-1.5,1.3l0,0v0.6
							c0,7-1.9,12.4-5.7,16.2c-3.8,3.7-9,5.6-15.5,5.6c-6.1,0-11.1-1.6-14.6-4.7C84.1,113.9,83.6,115,82.9,115.9z"/>
					</g>
					<g>
						<path class="st1" d="M115.4,57.9c0-5.6-1.4-9.9-4.2-12.6c-2.8-2.8-6.8-4.2-12-4.2c-10.7,0-16.1,5.5-16.2,16.6
							c0-9.2-2.4-16.2-7.1-20.9c0.3-0.3,0.7-0.6,1-0.9c5.5-4.7,12.9-7,22.2-7s16.7,2.3,22.2,7s8.3,12,8.3,22c0,0,0.6,5.8-5.7,6.9
							C120.7,65.4,115.2,63.9,115.4,57.9z"/>
						<path class="st1" d="M122.7,69.9c-3.6,0-6.9-1.3-9.2-3.6c-1.5-1.5-3.2-4.3-3.1-8.5c0-4.1-0.9-7.1-2.7-8.9
							c-1.9-1.8-4.6-2.7-8.4-2.7c-8,0-11.1,3.3-11.2,11.7h-10c0-7.8-1.9-13.6-5.6-17.4l-3.6-3.6l3.6-3.5c0.4-0.4,0.8-0.8,1.3-1.1
							c6.4-5.5,15-8.2,25.4-8.2c10.5,0,19.1,2.8,25.5,8.2c6.6,5.6,10,14.2,10,25.6c0.3,4.2-2.1,10.7-9.8,12
							C124.2,69.9,123.4,69.9,122.7,69.9z M99.3,36.1c6.5,0,11.7,1.9,15.5,5.6c3.8,3.7,5.7,9.2,5.7,16.2c0,0.6,0,1.1,0.3,1.4
							c0.4,0.4,1.6,0.7,2.5,0.6c0.5-0.1,1.7-0.3,1.5-1.5v-0.5c0-8.5-2.1-14.5-6.5-18.2c-4.6-3.9-11-5.8-19-5.8
							c-6.5,0-11.9,1.3-16.1,3.8c0.6,0.9,1.1,1.9,1.6,3C88.2,37.7,93.1,36.1,99.3,36.1z"/>
					</g>
				</g>
			</g>
			<g>
				<g>
					<path class="st2" d="M64.6,108.3c-2.8,2.8-6.8,4.2-12,4.2c-10.8,0-16.2-5.6-16.2-16.8V57.8c0-11.2,5.4-16.8,16.2-16.8
						c5.2,0,9.2,1.4,12,4.2c2.8,2.8,4.2,7,4.2,12.6l0,0c0-9.3,2.4-16.2,7.2-20.9c-0.4-0.4-0.8-0.8-1.2-1.1c-5.5-4.7-12.9-7-22.2-7
						s-16.7,2.3-22.2,7s-8.2,12-8.2,22v37.9c0,10,2.7,17.3,8.2,22c5.5,4.7,12.9,7,22.2,7s16.7-2.3,22.2-7c0.4-0.3,0.7-0.6,1-0.9
						c-4.7-4.7-7-11.7-7-20.9C68.8,101.4,67.4,105.5,64.6,108.3z"/>
					<path class="st2" d="M52.6,129.7c-10.5,0-19-2.8-25.4-8.2c-6.6-5.7-10-14.3-10-25.8V57.8c0-11.5,3.4-20.1,10-25.8
						c6.4-5.5,14.9-8.2,25.4-8.2s19.1,2.8,25.5,8.2c0.5,0.4,1,0.9,1.5,1.4l3.1,4l-3.2,3c-3.8,3.7-5.7,9.5-5.7,17.4h-10
						c0-4.2-0.9-7.3-2.7-9.1c-1.9-1.8-4.6-2.7-8.4-2.7c-8,0-11.2,3.3-11.2,11.8v37.9c0,8.5,3.1,11.8,11.2,11.8
						c3.8,0,6.6-0.9,8.4-2.7c1.8-1.8,2.7-4.8,2.7-8.9h10c0,7.8,1.9,13.7,5.6,17.4l3.6,3.6l-3.6,3.5c-0.4,0.4-0.8,0.8-1.3,1.2
						C71.6,126.9,63.1,129.7,52.6,129.7z M52.6,33.7c-8,0-14.4,2-18.9,5.8c-4.4,3.7-6.5,9.7-6.5,18.2v37.9c0,8.5,2.1,14.5,6.5,18.2
						c4.5,3.9,10.9,5.8,18.9,5.8c6.5,0,12-1.3,16.2-3.8c-0.6-1-1.2-2-1.7-3.1c-3.7,3.1-8.5,4.7-14.5,4.7c-13.5,0-21.2-7.9-21.2-21.8
						V57.8c0-13.9,7.7-21.8,21.2-21.8c6,0,10.9,1.6,14.6,4.8c0.5-1.1,1.1-2.1,1.7-3.1C64.7,35.1,59.2,33.7,52.6,33.7z"/>
				</g>
				<g>
					<path class="st2" d="M68.8,57.8v37.9c0,0.1,0,0.1,0,0.2c0,9.2,2.3,16.2,7,20.9c4.8-4.7,7.2-11.7,7.2-20.9v-38
						c0-0.1,0-0.1,0-0.2c0-9.2-2.4-16.2-7.1-20.9C71.2,41.5,68.8,48.5,68.8,57.8z"/>
					<path class="st2" d="M75.8,123.8l-3.5-3.5c-5.6-5.7-8.5-13.9-8.5-24.4v-38c0-10.6,3-18.9,8.7-24.5l3.1-3l3.9,3.1
						c5.7,5.7,8.6,13.9,8.6,24.4v38c0,10.6-3,18.9-8.8,24.5L75.8,123.8z M76,45.7c-1.4,3.3-2.1,7.3-2.2,12.1v37.9
						c0,4.9,0.7,9,2.1,12.3c1.4-3.3,2.2-7.3,2.2-12.1v-38C78.1,53,77.4,49,76,45.7z"/>
				</g>
				<g>
					<path class="st2" d="M68.8,97c0,0-0.6,11.6,7,19.8c3.1,3.3,7.6,6,14,7.2c4.9,0.9,8.5-8.6,3.4-12c-0.5-0.2-10.3-3.4-10.2-16.1
						L68.8,97z"/>
					<path class="st2" d="M90.5,129L90.5,129c-0.5,0-1.1,0-1.6-0.1c-6.9-1.3-12.6-4.2-16.8-8.7c-8.9-9.6-8.4-22.8-8.4-23.4l0.2-4.4
						l24.1-2l-0.1,5.5c-0.1,8.7,5.9,11,6.6,11.2l0.8,0.2l0.6,0.4c4.1,2.8,5.7,7.9,4.1,13.1C98.7,125.7,94.8,129,90.5,129z
						 M74.2,101.5c0.5,3.4,1.9,8.1,5.3,11.8c2.6,2.8,6.1,4.6,10.6,5.6c0.3-0.4,0.6-1.2,0.6-2c0-0.3,0-0.5-0.1-0.6
						c-4.2-1.7-10.3-6.3-12.1-15.1L74.2,101.5z"/>
				</g>
			</g>
		</g>
	</g>
</g>
</svg>
